<?xml version="1.0" encoding="UTF-8" standalone="no"?>
<!DOCTYPE svg PUBLIC "-//W3C//DTD SVG 1.1//EN" "http://www.w3.org/Graphics/SVG/1.1/DTD/svg11.dtd">
<svg version="1.1" xmlns="http://www.w3.org/2000/svg" xmlns:dc="http://purl.org/dc/elements/1.1/" xmlns:xl="http://www.w3.org/1999/xlink" viewBox="85 85 344 344" width="344" height="344">
  <defs/>
  <g id="rendered" stroke-opacity="1" stroke-dasharray="none" fill="none" fill-opacity="1" stroke="none">
    <title>rendered</title>
    <g id="delete_Master_layer">
      <title>Master layer</title>
      <g id="Graphic_54"/>
      <g id="Graphic_76">
        <path d="M 161.5 128.25269 L 161.5 128.25269 C 146.58831 128.25269 134.5 140.341 134.5 155.25269 L 134.5 346.2527 C 134.5 361.16438 146.58831 373.2527 161.5 373.2527 L 352.5 373.2527 C 367.4117 373.2527 379.5 361.16438 379.5 346.2527 L 379.5 155.25269 C 379.5 140.341 367.4117 128.25269 352.5 128.25269 Z M 167 150.75269 L 347 150.75269 C 352.52285 150.75269 357 155.22984 357 160.75269 L 357 340.7527 C 357 346.27554 352.52285 350.7527 347 350.7527 L 167 350.7527 C 161.47715 350.7527 157 346.27554 157 340.7527 L 157 160.75269 C 157 155.22984 161.47715 150.75269 167 150.75269 Z" fill="black"/>
      </g>
      <g id="Group_70">
        <g id="Graphic_65">
          <path d="M 425.46447 128.13351 L 275.38105 278.21693 C 273.42843 280.16955 270.2626 280.16955 268.30998 278.21693 L 235.78307 245.69002 C 233.83045 243.7374 233.83045 240.57157 235.78307 238.61895 C 235.78307 238.61895 235.78307 238.61895 235.78307 238.61895 L 385.8665 88.53553 C 387.8191 86.58291 390.98493 86.58291 392.93755 88.53553 L 425.46447 121.06245 C 427.4171 123.01507 427.4171 126.18089 425.46447 128.13351 C 425.46447 128.13351 425.46447 128.13351 425.46447 128.13351 Z" fill="white"/>
        </g>
        <g id="Graphic_68">
          <path d="M 240.3779 252.66994 L 223.4475 285.1567 C 222.42652 287.11576 223.187 289.53155 225.14607 290.5525 C 226.30454 291.15625 227.68483 291.15625 228.8433 290.5525 L 261.33006 273.6221 C 261.69136 273.4338 262.02178 273.19143 262.30987 272.90334 L 389.402 145.81118 C 390.9641 144.24909 390.9641 141.71643 389.402 140.15433 L 373.84567 124.59798 C 372.28357 123.03588 369.7509 123.03588 368.1888 124.59798 L 241.09666 251.69013 C 240.80857 251.97822 240.56619 252.30864 240.3779 252.66994 Z" fill="black"/>
          <path d="M 240.3779 252.66994 L 223.4475 285.1567 C 222.42652 287.11576 223.187 289.53155 225.14607 290.5525 C 226.30454 291.15625 227.68483 291.15625 228.8433 290.5525 L 261.33006 273.6221 C 261.69136 273.4338 262.02178 273.19143 262.30987 272.90334 L 389.402 145.81118 C 390.9641 144.24909 390.9641 141.71643 389.402 140.15433 L 373.84567 124.59798 C 372.28357 123.03588 369.7509 123.03588 368.1888 124.59798 L 241.09666 251.69013 C 240.80857 251.97822 240.56619 252.30864 240.3779 252.66994 Z" stroke="black" stroke-linecap="round" stroke-linejoin="round" stroke-width="2"/>
        </g>
        <g id="Graphic_61">
          <path d="M 416.9792 118.23402 L 405.6655 129.54773 C 404.1034 131.10982 401.5707 131.10982 400.0086 129.54773 C 400.0086 129.54773 400.0086 129.54773 400.0086 129.54773 L 384.45227 113.99138 C 382.89018 112.42928 382.89018 109.89662 384.45227 108.33452 L 395.766 97.02082 C 397.3281 95.45872 399.86074 95.45872 401.42284 97.02082 C 401.42284 97.02082 401.42284 97.02082 401.42284 97.02082 L 416.9792 112.57716 C 418.5413 114.13926 418.5413 116.67192 416.9792 118.23402 Z" fill="black"/>
          <path d="M 416.9792 118.23402 L 405.6655 129.54773 C 404.1034 131.10982 401.5707 131.10982 400.0086 129.54773 C 400.0086 129.54773 400.0086 129.54773 400.0086 129.54773 L 384.45227 113.99138 C 382.89018 112.42928 382.89018 109.89662 384.45227 108.33452 L 395.766 97.02082 C 397.3281 95.45872 399.86074 95.45872 401.42284 97.02082 C 401.42284 97.02082 401.42284 97.02082 401.42284 97.02082 L 416.9792 112.57716 C 418.5413 114.13926 418.5413 116.67192 416.9792 118.23402 Z" stroke="black" stroke-linecap="round" stroke-linejoin="round" stroke-width="2"/>
        </g>
      </g>
    </g>
  </g>
</svg>
