<?xml version="1.0" encoding="UTF-8" standalone="no"?>
<!DOCTYPE svg PUBLIC "-//W3C//DTD SVG 1.1//EN" "http://www.w3.org/Graphics/SVG/1.1/DTD/svg11.dtd">
<svg xmlns="http://www.w3.org/2000/svg" xmlns:xl="http://www.w3.org/1999/xlink" version="1.1" xmlns:dc="http://purl.org/dc/elements/1.1/" viewBox="16 16 96.00004 95.2295" width="96.00004" height="95.2295">
  <defs/>
  <g id="Icon_Sized" fill="none" stroke-dasharray="none" stroke-opacity="1" stroke="none" fill-opacity="1">
    <title>Icon Sized</title>
    <g id="Icon_Sized_Home">
      <title>Home</title>
      <g id="Graphic_2">
        <path d="M 64.00002 69.7036 C 64.00002 69.7036 64.00002 69.703596 64.00002 69.703596 C 64.00223 69.70348 65.815965 69.61057 67.87714 70.2166 C 69.93958 70.823 77.3238 74.09555 77.29404 82.510885 C 77.26428 90.92622 77.27523 104.03022 77.27523 107.2404 C 77.27523 110.45057 80.629935 111.1641 81.19894 111.1641 C 81.76794 111.1641 106.73264 111.2295 107.94554 111.2295 C 109.15844 111.2295 112.00004 109.97943 112.00004 107.50198 C 112.00004 105.02453 112.00004 60.80986 112.00004 60.80986 L 112.00004 60.80986 C 112.00004 60.80986 112.00004 60.80985 112.00004 60.80983 C 112 60.805376 111.99557 60.347624 111.67306 60.02512 C 111.34898 59.70103 66.15806 16.341176 66.15806 16.341176 C 66.15806 16.341176 65.8652 16.0142 65.30792 16.0142 C 64.751166 16.0142 64.00144 16.000027 64.00002 16 C 64.00002 16.000001 64.00002 16.000001 64.00002 16.000002 C 63.9986 16.000028 63.24887 16.014201 62.69212 16.014201 C 62.134836 16.014201 61.84198 16.341177 61.84198 16.341177 C 61.84198 16.341177 16.65106 59.701034 16.326976 60.02512 C 16.00447 60.347626 16.000036 60.80538 16 60.80983 C 16 60.80985 16 60.80986 16 60.80986 C 16 60.80986 16 105.02453 16 107.50198 C 16 109.97943 18.8416 111.2295 20.054498 111.2295 C 21.267396 111.2295 46.2321 111.1641 46.801103 111.1641 C 47.370103 111.1641 50.72481 110.45057 50.72481 107.2404 C 50.72481 104.03022 50.735757 90.92622 50.706 82.51089 C 50.67624 74.09556 58.06046 70.823 60.122896 70.2166 C 62.184074 69.61057 63.99781 69.70348 64.00002 69.7036 Z" fill="black"/>
      </g>
    </g>
  </g>
</svg>
