<svg fill="#000000" xmlns="http://www.w3.org/2000/svg"  viewBox="0 0 48 48" width="96px" height="96px"><path d="M 23.978516 4.5 A 1.50015 1.50015 0 0 0 22.939453 4.9394531 L 16.939453 10.939453 A 1.50015 1.50015 0 1 0 19.060547 13.060547 L 22.498047 9.6230469 L 22.480469 29.498047 A 1.50015 1.50015 0 1 0 25.480469 29.501953 L 25.498047 9.6191406 L 28.939453 13.060547 A 1.50015 1.50015 0 1 0 31.060547 10.939453 L 25.060547 4.9394531 A 1.50015 1.50015 0 0 0 23.978516 4.5 z M 15.5 17 C 12.480226 17 10 19.480226 10 22.5 L 10 38.5 C 10 41.519774 12.480226 44 15.5 44 L 32.5 44 C 35.519774 44 38 41.519774 38 38.5 L 38 22.5 C 38 19.480226 35.519774 17 32.5 17 L 30.5 17 A 1.50015 1.50015 0 1 0 30.5 20 L 32.5 20 C 33.898226 20 35 21.101774 35 22.5 L 35 38.5 C 35 39.898226 33.898226 41 32.5 41 L 15.5 41 C 14.101774 41 13 39.898226 13 38.5 L 13 22.5 C 13 21.101774 14.101774 20 15.5 20 L 17.5 20 A 1.50015 1.50015 0 1 0 17.5 17 L 15.5 17 z"/></svg>