<svg width="24" height="16" viewBox="0 0 24 16" fill="none" xmlns="http://www.w3.org/2000/svg">
<path d="M12 15.1289C18.707 15.1289 23.3389 9.7085 23.3389 8.01514C23.3389 6.31348 18.6987 0.901367 12 0.901367C5.38428 0.901367 0.652832 6.31348 0.652832 8.01514C0.652832 9.7085 5.37598 15.1289 12 15.1289ZM12 13.8174C6.52979 13.8174 2.10547 9.18555 2.10547 8.01514C2.10547 7.02734 6.52979 2.21289 12 2.21289C17.4453 2.21289 21.8862 7.02734 21.8862 8.01514C21.8862 9.18555 17.4453 13.8174 12 13.8174ZM12 12.6636C14.5815 12.6636 16.6567 10.5469 16.6567 8.01514C16.6567 5.41699 14.5815 3.3667 12 3.3667C9.40186 3.3667 7.31836 5.41699 7.32666 8.01514C7.34326 10.5469 9.40186 12.6636 12 12.6636ZM12 9.55908C11.1367 9.55908 10.4395 8.86182 10.4395 8.01514C10.4395 7.16016 11.1367 6.47119 12 6.47119C12.855 6.47119 13.5522 7.16016 13.5522 8.01514C13.5522 8.86182 12.855 9.55908 12 9.55908Z" fill="white"/>
</svg>
