<svg width="200" height="100" viewBox="0 0 200 100" fill="none" xmlns="http://www.w3.org/2000/svg">
<path opacity="0.5" d="M65.4905 78.6198C46.9991 78.0622 38.3496 66.9271 36.3363 61.4292C36.3363 59.3385 35.7555 52.137 46.3254 50.2786C56.8952 48.4201 70.3689 58.2931 81.1711 64.2169C89.8129 68.9559 97.0066 68.8242 99.5232 68.166C101.691 67.082 106.562 64.4724 108.699 62.7069C111.371 60.5 131.001 47.2586 137.04 46.4455C143.08 45.6325 161.897 41.5671 163.756 52.137C165.614 62.7069 153.999 72.4637 138.783 76.4129C123.567 80.3621 121.941 75.716 103.937 75.4837C85.9334 75.2514 88.6049 79.3167 65.4905 78.6198Z" fill="#F1B072"/>
<path opacity="0.5" d="M65.4905 78.6198C46.9991 78.0622 38.3496 66.9271 36.3363 61.4292C36.3363 59.3385 35.7555 52.137 46.3254 50.2786C56.8952 48.4201 70.3689 58.2931 81.1711 64.2169C89.8129 68.9559 97.0066 68.8242 99.5232 68.166C101.691 67.082 106.562 64.4724 108.699 62.7069C111.371 60.5 131.001 47.2586 137.04 46.4455C143.08 45.6325 161.897 41.5671 163.756 52.137C165.614 62.7069 153.999 72.4637 138.783 76.4129C123.567 80.3621 121.941 75.716 103.937 75.4837C85.9334 75.2514 88.6049 79.3167 65.4905 78.6198Z" fill="#FCC400"/>
<mask id="mask0_601_59862" style="mask-type:alpha" maskUnits="userSpaceOnUse" x="36" y="45" width="128" height="34">
<path opacity="0.5" d="M65.4907 78.6198C46.9993 78.0622 38.3498 66.9271 36.3365 61.4292C35.3998 58.8712 35.7557 52.137 46.3256 50.2786C56.8955 48.4201 70.3692 58.2931 81.1713 64.2169C89.8131 68.9559 97.0068 68.8242 99.5234 68.166C101.692 67.082 106.562 64.4724 108.699 62.7069C111.371 60.5 131.001 47.2586 137.041 46.4455C143.081 45.6325 161.897 41.5671 163.756 52.137C165.614 62.7069 153.999 72.4637 138.783 76.4129C123.567 80.3621 121.941 75.716 103.937 75.4837C85.9336 75.2514 88.6051 79.3167 65.4907 78.6198Z" fill="#FCC400"/>
</mask>
<g mask="url(#mask0_601_59862)">
<path d="M108.989 66.579C101.242 72.4119 85.8626 77.2879 79.1411 78.9967C81.5715 81.5031 86.7056 86.6524 87.7993 87.1993C89.1664 87.8828 109.787 87.4271 114.571 87.1993C119.356 86.9714 135.533 85.6043 151.825 78.9967C168.116 72.3892 155.242 74.7816 156.268 72.9588C157.293 71.136 162.989 60.7689 162.989 59.9715C162.989 59.3335 162.457 58.2626 162.192 57.8069C161.508 57.655 160.209 56.7588 160.483 54.3892C160.825 51.4272 159.571 51.7689 156.268 48.4651C152.964 45.1613 145.787 46.9841 138.154 48.4651C130.521 49.9461 118.673 59.2879 108.989 66.579Z" fill="#D1A73A"/>
<path opacity="0.2" d="M157.921 56.1736C158.633 49.2021 147.066 49.6574 138.358 52.0476C129.651 54.4378 124.154 60.7265 123.135 61.5801" stroke="#8F7021" stroke-width="14" stroke-linecap="round"/>
<path d="M38.5644 62.5294C39.8887 61.3892 42.4204 62.577 42.8463 63.6998C43.6106 64.8787 46.0468 68.1661 56.0824 72.8122C68.6268 78.6198 87.4435 72.696 99.1749 68.1661C110.906 63.6361 111.836 58.0608 118.572 53.647C125.309 49.2332 142.964 43.0771 151.444 41.7994C159.923 40.5218 164.453 44.1225 165.73 47.3748C167.008 50.627 164.801 57.3639 160.968 62.2423C157.135 67.1207 152.489 67.353 156.09 62.2423C159.69 57.1316 159.69 49.5817 147.146 49.6978C134.601 49.814 126.355 56.7831 113.346 65.1461C102.938 71.8365 91.7412 76.2967 87.4435 77.6906C81.3262 79.278 67.8835 82.1276 63.0515 80.8267C57.0116 79.2005 45.861 73.5091 44.1187 71.5345C42.3764 69.5599 35.708 64.9886 38.5644 62.5294Z" fill="#FFDF8D"/>
<path opacity="0.2" d="M60.5478 54.0233C52.3432 50.253 44.0896 51.5327 42.7598 51.5305" stroke="white" stroke-width="10" stroke-linecap="round"/>
</g>
<path d="M71.7568 43.8438C71.6527 44.1771 71.4756 44.4271 71.2256 44.5938C70.9964 44.7604 70.7673 44.8438 70.5381 44.8438C70.1839 44.8438 69.8818 44.7396 69.6318 44.5312C69.3818 44.3021 69.236 43.9792 69.1943 43.5625C69.2568 42.9792 69.2881 42.3958 69.2881 41.8125C69.2881 40.5 69.1631 39.1875 68.9131 37.875C68.6839 36.5625 68.5277 35.2083 68.4443 33.8125V32.9062C68.4443 32.5938 68.4548 32.2396 68.4756 31.8438C68.4964 31.4479 68.5277 31.0625 68.5693 30.6875C68.611 30.3125 68.6527 29.9688 68.6943 29.6562C68.7568 29.3229 68.8193 29.0625 68.8818 28.875L68.9756 28.5625C68.9756 28.4375 69.0173 28.3229 69.1006 28.2188C69.2048 28.0938 69.3193 27.9896 69.4443 27.9062C69.5902 27.8229 69.736 27.7604 69.8818 27.7188C70.0277 27.6562 70.1527 27.625 70.2568 27.625C70.5485 27.625 70.8298 27.7292 71.1006 27.9375C71.9131 28.6042 72.736 29.3333 73.5693 30.125C74.4235 30.8958 75.2256 31.6875 75.9756 32.5C76.7464 33.3125 77.4548 34.125 78.1006 34.9375C78.7464 35.75 79.2673 36.5 79.6631 37.1875L79.8506 35.1562C79.9548 34.2604 80.0277 33.3333 80.0693 32.375C80.1318 31.4167 80.1735 30.4271 80.1943 29.4062C80.1527 29.2396 80.1318 29.0938 80.1318 28.9688C80.1318 28.5521 80.2464 28.2292 80.4756 28C80.7048 27.7708 80.9964 27.6562 81.3506 27.6562C81.6423 27.6562 81.8818 27.7083 82.0693 27.8125C82.2777 27.9167 82.4339 28.0521 82.5381 28.2188C82.6631 28.3854 82.7464 28.5729 82.7881 28.7812C82.8298 28.9688 82.8506 29.1562 82.8506 29.3438C82.8506 29.6771 82.8193 30.0104 82.7568 30.3438C82.7152 30.6562 82.6943 30.9479 82.6943 31.2188C82.5693 32.9688 82.4339 34.6875 82.2881 36.375C82.1423 38.0417 82.0693 39.75 82.0693 41.5C82.0485 41.8958 81.9235 42.2292 81.6943 42.5C81.486 42.7708 81.1735 42.9062 80.7568 42.9062C80.5277 42.9062 80.3089 42.8333 80.1006 42.6875C79.9131 42.5417 79.736 42.375 79.5693 42.1875C79.4027 42 79.2568 41.8125 79.1318 41.625C79.0277 41.4375 78.9548 41.3021 78.9131 41.2188L78.3818 40.0625C77.4027 38.2917 76.2777 36.6667 75.0068 35.1875C73.7568 33.6875 72.4443 32.3542 71.0693 31.1875C71.0277 31.4792 70.986 31.7812 70.9443 32.0938C70.9235 32.3854 70.9131 32.6771 70.9131 32.9688C70.9131 33.7604 70.9548 34.5521 71.0381 35.3438C71.1423 36.1354 71.2464 36.9271 71.3506 37.7188C71.4548 38.4896 71.5485 39.2708 71.6318 40.0625C71.736 40.8542 71.7881 41.6562 71.7881 42.4688C71.7881 42.6979 71.7881 42.9271 71.7881 43.1562C71.7881 43.3854 71.7777 43.6146 71.7568 43.8438ZM89.2568 39.0625C89.1527 39.0417 89.0589 39.0312 88.9756 39.0312C88.9339 39.0312 88.8298 39.1875 88.6631 39.5C88.4964 39.7917 88.2985 40.1354 88.0693 40.5312C87.861 40.9062 87.6527 41.2917 87.4443 41.6875C87.236 42.0625 87.0798 42.3333 86.9756 42.5C86.6423 42.8958 86.2673 43.0938 85.8506 43.0938C85.5381 43.0938 85.2673 42.9896 85.0381 42.7812C84.8089 42.5521 84.6943 42.2292 84.6943 41.8125C84.6943 41.6458 84.7048 41.5104 84.7256 41.4062C85.4131 40.1979 86.0693 39.0104 86.6943 37.8438C87.3193 36.6771 87.9652 35.5208 88.6318 34.375C89.3193 33.2292 90.0381 32.1146 90.7881 31.0312C91.5381 29.9271 92.3818 28.8542 93.3193 27.8125C93.4652 27.6458 93.6214 27.5417 93.7881 27.5C93.9548 27.4375 94.111 27.3958 94.2568 27.375C94.5693 27.375 94.8298 27.4896 95.0381 27.7188C95.2673 27.9479 95.4027 28.2292 95.4443 28.5625C95.3818 28.7917 95.3089 28.9479 95.2256 29.0312L95.4756 28.9062C95.7464 28.9062 96.0277 28.9792 96.3193 29.125C96.6318 29.2708 96.8506 29.5521 96.9756 29.9688C97.1423 31.1354 97.3402 32.2708 97.5693 33.375C97.7985 34.4583 98.0173 35.5521 98.2256 36.6562C98.4548 37.7396 98.6527 38.8333 98.8193 39.9375C99.0068 41.0417 99.1214 42.1875 99.1631 43.375C99.1631 43.7917 99.0381 44.1146 98.7881 44.3438C98.5381 44.5521 98.2673 44.6562 97.9756 44.6562C97.6631 44.6562 97.361 44.5625 97.0693 44.375C96.7985 44.1875 96.6423 43.8646 96.6006 43.4062C96.5589 41.9479 96.4339 40.5729 96.2256 39.2812C96.1839 39.3229 96.0693 39.3542 95.8818 39.375C94.7568 39.375 93.6318 39.3229 92.5068 39.2188C91.4027 39.1146 90.3193 39.0625 89.2568 39.0625ZM90.3506 36.5625C91.1006 36.6042 91.9756 36.6562 92.9756 36.7188C93.9756 36.7812 94.8923 36.8125 95.7256 36.8125H95.7568L95.7256 36.6562C95.6631 36.4479 95.5902 36.1458 95.5068 35.75C95.4235 35.3542 95.3298 34.9271 95.2256 34.4688C95.1423 34.0104 95.0485 33.5417 94.9443 33.0625C94.861 32.5625 94.7777 32.1146 94.6943 31.7188C94.611 31.3229 94.5381 31 94.4756 30.75C94.4339 30.5 94.4131 30.375 94.4131 30.375C94.2256 30.5417 93.9652 30.8438 93.6318 31.2812C93.3402 31.6562 92.9652 32.2083 92.5068 32.9375C92.0485 33.6458 91.4756 34.6146 90.7881 35.8438L90.3506 36.5625ZM105.632 39.0625C105.528 39.0417 105.434 39.0312 105.351 39.0312C105.309 39.0312 105.205 39.1875 105.038 39.5C104.871 39.7917 104.674 40.1354 104.444 40.5312C104.236 40.9062 104.028 41.2917 103.819 41.6875C103.611 42.0625 103.455 42.3333 103.351 42.5C103.017 42.8958 102.642 43.0938 102.226 43.0938C101.913 43.0938 101.642 42.9896 101.413 42.7812C101.184 42.5521 101.069 42.2292 101.069 41.8125C101.069 41.6458 101.08 41.5104 101.101 41.4062C101.788 40.1979 102.444 39.0104 103.069 37.8438C103.694 36.6771 104.34 35.5208 105.007 34.375C105.694 33.2292 106.413 32.1146 107.163 31.0312C107.913 29.9271 108.757 28.8542 109.694 27.8125C109.84 27.6458 109.996 27.5417 110.163 27.5C110.33 27.4375 110.486 27.3958 110.632 27.375C110.944 27.375 111.205 27.4896 111.413 27.7188C111.642 27.9479 111.778 28.2292 111.819 28.5625C111.757 28.7917 111.684 28.9479 111.601 29.0312L111.851 28.9062C112.121 28.9062 112.403 28.9792 112.694 29.125C113.007 29.2708 113.226 29.5521 113.351 29.9688C113.517 31.1354 113.715 32.2708 113.944 33.375C114.174 34.4583 114.392 35.5521 114.601 36.6562C114.83 37.7396 115.028 38.8333 115.194 39.9375C115.382 41.0417 115.496 42.1875 115.538 43.375C115.538 43.7917 115.413 44.1146 115.163 44.3438C114.913 44.5521 114.642 44.6562 114.351 44.6562C114.038 44.6562 113.736 44.5625 113.444 44.375C113.174 44.1875 113.017 43.8646 112.976 43.4062C112.934 41.9479 112.809 40.5729 112.601 39.2812C112.559 39.3229 112.444 39.3542 112.257 39.375C111.132 39.375 110.007 39.3229 108.882 39.2188C107.778 39.1146 106.694 39.0625 105.632 39.0625ZM106.726 36.5625C107.476 36.6042 108.351 36.6562 109.351 36.7188C110.351 36.7812 111.267 36.8125 112.101 36.8125H112.132L112.101 36.6562C112.038 36.4479 111.965 36.1458 111.882 35.75C111.799 35.3542 111.705 34.9271 111.601 34.4688C111.517 34.0104 111.424 33.5417 111.319 33.0625C111.236 32.5625 111.153 32.1146 111.069 31.7188C110.986 31.3229 110.913 31 110.851 30.75C110.809 30.5 110.788 30.375 110.788 30.375C110.601 30.5417 110.34 30.8438 110.007 31.2812C109.715 31.6562 109.34 32.2083 108.882 32.9375C108.424 33.6458 107.851 34.6146 107.163 35.8438L106.726 36.5625ZM121.507 43.8438C121.403 44.1771 121.226 44.4271 120.976 44.5938C120.746 44.7604 120.517 44.8438 120.288 44.8438C119.934 44.8438 119.632 44.7396 119.382 44.5312C119.132 44.3021 118.986 43.9792 118.944 43.5625C119.007 42.9792 119.038 42.3958 119.038 41.8125C119.038 40.5 118.913 39.1875 118.663 37.875C118.434 36.5625 118.278 35.2083 118.194 33.8125V32.9062C118.194 32.5938 118.205 32.2396 118.226 31.8438C118.246 31.4479 118.278 31.0625 118.319 30.6875C118.361 30.3125 118.403 29.9688 118.444 29.6562C118.507 29.3229 118.569 29.0625 118.632 28.875L118.726 28.5625C118.726 28.4375 118.767 28.3229 118.851 28.2188C118.955 28.0938 119.069 27.9896 119.194 27.9062C119.34 27.8229 119.486 27.7604 119.632 27.7188C119.778 27.6562 119.903 27.625 120.007 27.625C120.299 27.625 120.58 27.7292 120.851 27.9375C121.663 28.6042 122.486 29.3333 123.319 30.125C124.174 30.8958 124.976 31.6875 125.726 32.5C126.496 33.3125 127.205 34.125 127.851 34.9375C128.496 35.75 129.017 36.5 129.413 37.1875L129.601 35.1562C129.705 34.2604 129.778 33.3333 129.819 32.375C129.882 31.4167 129.924 30.4271 129.944 29.4062C129.903 29.2396 129.882 29.0938 129.882 28.9688C129.882 28.5521 129.996 28.2292 130.226 28C130.455 27.7708 130.746 27.6562 131.101 27.6562C131.392 27.6562 131.632 27.7083 131.819 27.8125C132.028 27.9167 132.184 28.0521 132.288 28.2188C132.413 28.3854 132.496 28.5729 132.538 28.7812C132.58 28.9688 132.601 29.1562 132.601 29.3438C132.601 29.6771 132.569 30.0104 132.507 30.3438C132.465 30.6562 132.444 30.9479 132.444 31.2188C132.319 32.9688 132.184 34.6875 132.038 36.375C131.892 38.0417 131.819 39.75 131.819 41.5C131.799 41.8958 131.674 42.2292 131.444 42.5C131.236 42.7708 130.924 42.9062 130.507 42.9062C130.278 42.9062 130.059 42.8333 129.851 42.6875C129.663 42.5417 129.486 42.375 129.319 42.1875C129.153 42 129.007 41.8125 128.882 41.625C128.778 41.4375 128.705 41.3021 128.663 41.2188L128.132 40.0625C127.153 38.2917 126.028 36.6667 124.757 35.1875C123.507 33.6875 122.194 32.3542 120.819 31.1875C120.778 31.4792 120.736 31.7812 120.694 32.0938C120.674 32.3854 120.663 32.6771 120.663 32.9688C120.663 33.7604 120.705 34.5521 120.788 35.3438C120.892 36.1354 120.996 36.9271 121.101 37.7188C121.205 38.4896 121.299 39.2708 121.382 40.0625C121.486 40.8542 121.538 41.6562 121.538 42.4688C121.538 42.6979 121.538 42.9271 121.538 43.1562C121.538 43.3854 121.528 43.6146 121.507 43.8438Z" fill="#E5BA4C"/>
</svg>
